<svg xmlns="http://www.w3.org/2000/svg" fill="rgb(111, 111, 245)" viewBox="17.42 3.55 56.17 83.88"><path d="M72.962 16.455a2.242 2.242 0 0 0-1.616-.693H40.158l-.569-4.075c-.642-5.128-5.345-6.821-7.468-6.825l-13.466-1.28a1.133 1.133 0 0 0-1.227 1.014 1.127 1.127 0 0 0 1.014 1.227l13.522 1.284c.036.002.072.004.107.004h.049c1.27 0 4.77 1.128 5.238 4.87l.528 3.78h-7.913c-.604 0-1.19.25-1.617.692a2.236 2.236 0 0 0-.609 1.649l1.208 24.152c.023.449.177.871.437 1.215l3.982 5.358 2.619 36.522a2.236 2.236 0 0 0 2.224 2.07h24.78a2.237 2.237 0 0 0 2.225-2.07L67.84 48.83l3.979-5.354c.264-.352.416-.771.439-1.212l1.313-24.147a2.245 2.245 0 0 0-.609-1.662zm-1.637 1.534l-.561 10.34a1.08 1.08 0 0 0-.522.331c-.191.23-2.911 3.393-7.736 4.844l-3.14-3.14c-.99-.988-2.717-.992-3.709.001l-3.146 3.146a24.764 24.764 0 0 1-4.282-1.614c-2.143-1.036-4.188-1.641-6.088-1.953l-1.669-11.938 30.853-.017zm-9.319 18.198a.373.373 0 0 1 .002.525l-4.233 4.232c-.164.164-.317.21-.525-.001l-4.231-4.231a.368.368 0 0 1 0-.525l.201-.201c1.501.313 2.93.46 4.271.46 1.542 0 2.967-.19 4.285-.49l.23.231zm-6.856-2.132l2.098-2.099c.095-.095.206-.108.264-.108s.169.014.263.108l2.111 2.111a17.71 17.71 0 0 1-4.736-.012zM38.2 18.007l1.634 11.69c-4.287-.212-7.589.983-9.178 1.718l-.683-13.403 8.227-.005zm27.638 29.744a1.138 1.138 0 0 0-.219.591l-2.641 36.83-24.741.02-2.643-36.85a1.13 1.13 0 0 0-.219-.591l-4.174-5.611-.421-8.265c.004-.002.01-.002.014-.005.052-.031 3.842-2.264 9.361-1.87l1.972 14.109c-1.187-.017-2.304.792-2.601 1.978l-1.451 5.807a2.629 2.629 0 0 0 1.907 3.179l3.81.951 3.333 23.854a1.126 1.126 0 0 0 1.269.959 1.125 1.125 0 0 0 .959-1.27l-3.214-23.001c.096.01.19.035.287.035a2.618 2.618 0 0 0 2.541-1.985l1.451-5.808a2.628 2.628 0 0 0-1.907-3.178l-4.042-1.011-2-14.315a19.99 19.99 0 0 1 4.778 1.618 27.4 27.4 0 0 0 3.646 1.452 2.603 2.603 0 0 0 .532 2.928l4.232 4.231c.496.495 1.154.768 1.854.768s1.358-.272 1.853-.768l4.234-4.233a2.62 2.62 0 0 0 .477-3.02c3-1.085 5.213-2.692 6.519-3.835l-.578 10.685-4.178 5.621zm-22.382 7.864l-2.925-.726a.373.373 0 0 1-.271-.451l1.451-5.807c.043-.175.198-.271.413-.271l.037.001.291.073 1.004 7.181zm1.351-6.592l3.159.79c.199.05.32.253.271.451l-1.45 5.805a.37.37 0 0 1-.358.282l-.618-.153-1.004-7.175z"/><path d="M59.38 62.875l-5.806-1.45c-1.384-.351-2.833.528-3.18 1.906l-1.451 5.808a2.628 2.628 0 0 0 1.907 3.178l5.807 1.452a2.624 2.624 0 0 0 3.179-1.908l1.451-5.807a2.628 2.628 0 0 0-1.907-3.179zm-.276 2.634l-1.451 5.807a.37.37 0 0 1-.359.281l-5.896-1.463a.374.374 0 0 1-.271-.451l1.45-5.805c.04-.158.176-.271.415-.271l.036.001 5.804 1.45a.374.374 0 0 1 .272.451z"/></svg>