<svg xmlns="http://www.w3.org/2000/svg" enable-background="new 0 0 64 64" viewBox="0 11.5 64 40.98" fill="rgb(111, 111, 245)"><path d="M41.8,11.52c-3.37,0-6.74,0.36-9.77,1.03c-3.02-0.67-6.4-1.03-9.81-1.03C9.76,11.52,0,16.02,0,21.77   c0,1.98,1.14,3.87,3.3,5.48v24.26c0,0.54,0.43,0.97,0.97,0.97h35.88h19.59c0.54,0,0.97-0.43,0.97-0.97V27.24   c2.15-1.61,3.29-3.49,3.29-5.46C64,16.02,54.25,11.52,41.8,11.52z M4.82,25.95c-1.31-0.9-2.88-2.36-2.88-4.18   c0-4.02,8.15-8.32,20.27-8.32c3.33,0,6.62,0.35,9.54,1.02c0.04,0.01,0.08,0.02,0.12,0.03c6.44,1.49,10.6,4.34,10.6,7.27   c0,1.81-1.56,3.27-2.87,4.17c-0.26,0.18-0.42,0.48-0.42,0.8v23.8H5.24V26.75C5.24,26.43,5.08,26.13,4.82,25.95z M59.19,25.94   c-0.26,0.18-0.42,0.48-0.42,0.8v23.8H41.12V27.24c2.15-1.61,3.29-3.49,3.29-5.46c0-3.23-2.96-6.08-8.09-7.98   c1.79-0.22,3.63-0.34,5.48-0.34c12.12,0,20.26,4.3,20.26,8.32C62.06,23.58,60.5,25.04,59.19,25.94z"/><path d="M13.75 25.36h1.92c.54 0 .97-.43.97-.97 0-.54-.43-.97-.97-.97h-1.92c-.54 0-.97.43-.97.97C12.78 24.92 13.21 25.36 13.75 25.36zM25.84 25.36h1.92c.54 0 .97-.43.97-.97 0-.54-.43-.97-.97-.97h-1.92c-.54 0-.97.43-.97.97C24.88 24.92 25.31 25.36 25.84 25.36zM26.81 31.03c-.54 0-.97.43-.97.97s.43.97.97.97h1.92c.54 0 .97-.43.97-.97s-.43-.97-.97-.97H26.81zM13.75 36.04h1.92c.54 0 .97-.43.97-.97 0-.54-.43-.97-.97-.97h-1.92c-.54 0-.97.43-.97.97C12.78 35.61 13.21 36.04 13.75 36.04zM20.28 28.88h1.92c.54 0 .97-.43.97-.97 0-.54-.43-.97-.97-.97h-1.92c-.54 0-.97.43-.97.97C19.31 28.45 19.75 28.88 20.28 28.88zM19.32 38.93h1.92c.54 0 .97-.43.97-.97 0-.54-.43-.97-.97-.97h-1.92c-.54 0-.97.43-.97.97C18.35 38.5 18.79 38.93 19.32 38.93zM14.71 42.64c-.54 0-.97.43-.97.97 0 .54.43.97.97.97h1.92c.54 0 .97-.43.97-.97 0-.54-.43-.97-.97-.97H14.71zM25.84 44.58h1.92c.54 0 .97-.43.97-.97 0-.54-.43-.97-.97-.97h-1.92c-.54 0-.97.43-.97.97C24.88 44.15 25.31 44.58 25.84 44.58z"/></svg>