<svg xmlns="http://www.w3.org/2000/svg" data-name="Layer 1" viewBox="0 38.97 512 434.18" fill="rgb(111, 111, 245)"><path d="M38.87,299l90.62,6c.21,0,.42,0,.62,0A9.5,9.5,0,0,0,137.77,290L84.16,217.2a7.49,7.49,0,0,0-11.06-1.13A130.19,130.19,0,0,0,32,290.26,7.48,7.48,0,0,0,38.87,299Zm21.57-43.8A115.06,115.06,0,0,1,77.17,233l41.49,56.32-70.15-4.67A114.64,114.64,0,0,1,60.44,255.24Zm91.19,27.08h0a9.55,9.55,0,0,0,8.53,5.31h.21a9.54,9.54,0,0,0,8.49-5.7l36.21-82.81A7.5,7.5,0,0,0,200.52,189a130.2,130.2,0,0,0-84.81,1.48,7.5,7.5,0,0,0-4.16,10.36Zm8.63-84.71A115.14,115.14,0,0,1,187.89,201l-28,64.1-31-63.09A114.88,114.88,0,0,1,160.26,197.61Zm21.92,102.73a9.53,9.53,0,0,0,8.13,4.57,9.24,9.24,0,0,0,1.05-.06l89.82-10a7.5,7.5,0,0,0,6.5-9A130.17,130.17,0,0,0,244,213.09a7.51,7.51,0,0,0-11.06,1.57l-50.53,75.46A9.54,9.54,0,0,0,182.18,300.34Zm58.41-70.14A115.21,115.21,0,0,1,271,280.85l-69.52,7.78Zm48,105.3a7.5,7.5,0,0,0-6.89-8.79l-90.62-6a9.5,9.5,0,0,0-8.28,15.11l53.61,72.77a7.52,7.52,0,0,0,5.28,3,6.56,6.56,0,0,0,.76,0,7.47,7.47,0,0,0,5-1.93,130.21,130.21,0,0,0,41.12-74.18Zm-98.51.15h0Zm70,34.86a115.13,115.13,0,0,1-16.73,22.25l-41.49-56.33L272,341.1A114.64,114.64,0,0,1,260.09,370.51ZM432.5,241.87a7.5,7.5,0,1,0,7.5,7.5A7.5,7.5,0,0,0,432.5,241.87ZM138.34,325.41a9.54,9.54,0,0,0-9.17-4.51L39.35,331a7.49,7.49,0,0,0-6.5,9,130.24,130.24,0,0,0,43.68,72.71,7.49,7.49,0,0,0,11-1.58l50.54-75.46A9.52,9.52,0,0,0,138.34,325.41Zm-58.4,70.14a115.21,115.21,0,0,1-30.4-50.65l69.52-7.77ZM402.5,211.87a7.5,7.5,0,1,0,7.5,7.5A7.5,7.5,0,0,0,402.5,211.87ZM325.32,99.79h-.75a99,99,0,0,1,23.48-48.41,7.5,7.5,0,0,0-11.13-10.05,114.16,114.16,0,0,0-27.76,59.15A186.09,186.09,0,0,0,192,155.78a160.54,160.54,0,0,0-31.76-3.17C71.89,152.61,0,224.51,0,312.88S71.89,473.14,160.26,473.14a159.36,159.36,0,0,0,79.13-20.93,187.09,187.09,0,0,0,85.93,20.93C428.26,473.14,512,389.4,512,286.46S428.26,99.79,325.32,99.79ZM160.26,458.14C80.17,458.14,15,393,15,312.88S80.17,167.61,160.26,167.61s145.27,65.17,145.27,145.27S240.36,458.14,160.26,458.14Zm165.06,0a172.16,172.16,0,0,1-71.2-15.44,160.17,160.17,0,0,0,66.41-129.82c0-71.39-46.92-132-111.53-152.68a171,171,0,0,1,98.73-44.53,130.45,130.45,0,0,0,5.32,41.2,42.82,42.82,0,0,1-15.14-8.53,7.5,7.5,0,0,0-9.9,11.27,56.93,56.93,0,0,0,34.82,14.09l1,0c.15,0,.3,0,.46,0l.34,0,.7,0a57.7,57.7,0,0,0,37.33-14.13,7.5,7.5,0,1,0-9.88-11.29,42.73,42.73,0,0,1-23.38,10.21,116,116,0,0,1-6.52-43.72c.83,0,1.65,0,2.48,0C420,114.79,497,191.8,497,286.46S420,458.14,325.32,458.14ZM168.9,343.43a9.5,9.5,0,0,0-17.23.39l-36.21,82.81A7.5,7.5,0,0,0,120,436.77a130.37,130.37,0,0,0,84.81-1.48A7.5,7.5,0,0,0,209,424.93Zm-8.64,84.71a115.12,115.12,0,0,1-27.62-3.36l28-64.1,31,63.1A114.94,114.94,0,0,1,160.26,428.14ZM387.5,256.87a7.5,7.5,0,1,0,7.5,7.5A7.5,7.5,0,0,0,387.5,256.87Z"/></svg>