<svg xmlns="http://www.w3.org/2000/svg" fill="rgb(111, 111, 245)" viewBox="5 12.72 90 74.48"><path d="M87.4 27.2c-1.1-2.8-3.9-4.8-7-5-1.2-3-4.1-5-7.4-5-.3 0-.7 0-1 .1-1.4-2.5-4-4.1-7-4.1-4.4 0-8 3.6-8 8 0 1.2.2 2.3.7 3.3l-4.1 1.9c-.1-.2-.1-.3-.2-.5-.6-1.2-1.3-2.2-2.3-3.1 1.5-1.1 2.6-2.6 3.1-4.5.3-1.1-.4-2.2-1.4-2.4-1.1-.3-2.2.3-2.4 1.4-.3 1-.9 1.9-1.9 2.4-.3.2-.6.3-1 .4l.9-3.3c.3-1.1-.4-2.2-1.4-2.4-1.1-.3-2.2.4-2.4 1.4l-.9 3.3c-.2-.2-.5-.5-.7-.8-.5-.9-.7-2-.4-3 .3-1.1-.4-2.2-1.4-2.5-1.1-.3-2.2.4-2.4 1.4-.5 1.8-.3 3.7.5 5.4-1.3.3-2.5.8-3.5 1.6-2.3 1.7-3.8 4.3-4 7.2-.2 2.6.2 5.2 1 7.7L6.2 48.4h-.1c-.1.1-.3.2-.4.3h-.1c-.1.1-.2.2-.3.4l-.1.1c-.1.1-.1.2-.2.3v31.7c0 3.3 2.7 6 6 6h72c5.5 0 10-4.5 10-10V40.5c1.2-1.4 2-3.3 2-5.3 0-4.3-3.4-7.8-7.6-8zm-51.8 1.5c.1-1.7 1-3.2 2.4-4.2 1-.7 2.1-1.1 3.3-1.1.5 0 1 .1 1.5.2l3.3.9c1.6.4 3 1.6 3.7 3.1.7 1.5.7 3.3 0 4.8-1.7 3.6-4.7 6.5-8.4 8-.8.3-1.8.1-2.3-.6-2.6-3.1-3.8-7.1-3.5-11.1zm-1.4 11.1c.5.9 1 1.7 1.7 2.5 1.2 1.5 2.9 2.3 4.7 2.3.8 0 1.5-.1 2.2-.4 4.6-1.9 8.4-5.4 10.5-10 .6-1.2.9-2.4.9-3.7l6-2.8c1.3 1 2.9 1.5 4.7 1.5.3 0 .7 0 1-.1 1.3 2.3 3.8 3.9 6.6 4.1 1.1 2.8 3.9 4.8 7 5 0 .1.1.1.1.2-20.4 8.6-42.8 12.1-65 10.5l19.6-9.1zM9 52.4l2.8.3c23.5 2.2 47.4-1.4 69.2-10.4v16.5c0 2.5-2 4.5-4.5 4.5-3.5 0-6.9-1.5-9.2-4.2a7.79 7.79 0 0 0-6-2.8c-4 0-7.5 2.9-8.2 6.8-.4 2.4-2.5 4.2-5 4.2h-1c-3.2 0-6.3-1.5-8.2-4.1-1.8-2.4-4.7-3.9-7.8-3.9-1.8 0-3.5.5-5 1.4L22.3 63c-2.5 1.5-5.4 2.3-8.4 2.3-2.7-.1-4.9-2.3-4.9-5v-7.9zm0 15.3c1.4.9 3.1 1.5 4.9 1.5 3.7 0 7.3-1 10.5-2.9l3.8-2.3c.9-.5 1.9-.8 3-.8 1.8 0 3.5.9 4.6 2.3 2.7 3.6 7 5.7 11.4 5.7h1c4.4 0 8.1-3.1 8.9-7.4.4-2.1 2.2-3.6 4.3-3.6 1.1 0 2.2.5 3 1.4 3.1 3.6 7.5 5.6 12.2 5.6 1.6 0 3.1-.5 4.4-1.2-.8 5.2-5.2 9.2-10.7 9.2H9v-7.5zm80 9.5c0 3.3-2.7 6-6 6H11c-1.1 0-2-.9-2-2v-2h62c7.7 0 14-6.3 14-14V42.9c.6.2 1.3.3 2 .3s1.4-.1 2-.3v34.3zm-2-38c-2 0-3.7-1.5-4-3.4-.1-.5-.4-1-.8-1.3-.3-.2-.8-.4-1.2-.4h-.4c-.3 0-.5.1-.7.1-2 0-3.7-1.5-4-3.4-.1-.5-.4-1-.8-1.3-.4-.3-1-.4-1.5-.3-.3 0-.5.1-.7.1-1.8 0-3.4-1.2-3.9-3-.1-.5-.5-1-1-1.3-.5-.2-1.1-.3-1.6-.1-.5.2-1 .3-1.5.3-2.2 0-4-1.8-4-4s1.8-4 4-4c1.8 0 3.4 1.2 3.9 3 .2.5.5 1 1 1.3.5.2 1.1.3 1.6.1.5-.2 1-.3 1.5-.3 2 0 3.7 1.5 4 3.4.1.5.4 1 .8 1.3s1 .4 1.5.3c.3-.1.5-.1.7-.1 2 0 3.7 1.5 4 3.4.1.5.4 1 .8 1.3s1 .4 1.5.3c.3-.1.5-.1.7-.1 2.2 0 4 1.8 4 4 .1 2.3-1.7 4.1-3.9 4.1z"/></svg>